<?xml version="1.0" encoding="iso-8859-1"?>
<!-- Generator: Adobe Illustrator 19.0.0, SVG Export Plug-In . SVG Version: 6.00 Build 0)  -->
<svg version="1.1" id="Capa_1" xmlns="http://www.w3.org/2000/svg" xmlns:xlink="http://www.w3.org/1999/xlink" x="0px" y="0px"
	 viewBox="0 0 511.999 511.999" style="enable-background:new 0 0 511.999 511.999;" xml:space="preserve">
<path style="fill:#707487;" d="M474.661,7.729H37.264c-9.333,0-16.968,7.635-16.968,16.967c0,15.63,0,297.332,0,305.715h471.334
	c0-8.476,0-290.501,0-305.715C491.629,15.364,483.994,7.729,474.661,7.729z"/>
<path style="fill:#5E6377;" d="M40.214,24.696c0-9.333,7.635-16.967,16.968-16.967H37.264c-9.333,0-16.968,7.635-16.968,16.967
	c0,15.63,0,297.332,0,305.715h19.918C40.214,321.935,40.214,39.91,40.214,24.696z"/>
<path style="fill:#00C3FF;" d="M446.702,45.802H65.223c-5.552,0-10.053,4.501-10.053,10.053c0,11.098,0,262.245,0,271.439h60.201
	h281.182h60.201c0-9.197,0-260.343,0-271.439C456.754,50.303,452.254,45.802,446.702,45.802z"/>
<path style="fill:#00AAF0;" d="M75.172,55.854c0-5.551,4.5-10.053,10.053-10.053H65.223c-5.552,0-10.053,4.5-10.053,10.053
	c0,11.098,0,262.244,0,271.439h20.001C75.172,318.097,75.172,66.951,75.172,55.854z"/>
<rect x="216.263" y="203.702" style="fill:#9E6B57;" width="37.455" height="124.128"/>
<rect x="216.263" y="203.702" style="fill:#8C5A4B;" width="20.001" height="124.128"/>
<path style="fill:#E4EAF8;" d="M326.985,81.309c-2.385,0-4.319,1.934-4.319,4.319v243.129h36.778h36.779V85.628
	c0-2.385-1.934-4.319-4.319-4.319C390.351,81.309,325.897,81.309,326.985,81.309z"/>
<path style="fill:#D8DCE5;" d="M346.987,81.309h-20.001c-2.385,0-4.319,1.934-4.319,4.319v243.129h20.001V85.628
	C342.667,83.243,344.601,81.309,346.987,81.309z"/>
<path style="fill:#E4EAF8;" d="M216.259,203.707l33.056-70.105c1.438-3.049,5.776-3.049,7.213,0l33.056,70.105H216.259z"/>
<path style="fill:#D8DCE5;" d="M256.528,133.602c-1.438-3.049-5.776-3.049-7.213,0l-33.056,70.106h20.001l26.663-56.545
	L256.528,133.602z"/>
<path style="fill:#707487;" d="M249.314,133.602l-19.506,41.37h46.227l-19.506-41.37
	C255.09,130.553,250.753,130.553,249.314,133.602z"/>
<path style="fill:#5E6377;" d="M249.82,132.804c-0.19,0.24-0.365,0.499-0.505,0.797l-19.506,41.37h20.001l13.113-27.81l-6.393-13.56
	C255.231,130.85,251.579,130.59,249.82,132.804z"/>
<rect x="133.048" y="230.414" style="fill:#E4EAF8;" width="40.012" height="40.012"/>
<rect x="133.048" y="230.414" style="fill:#D8DCE5;" width="20.001" height="40.012"/>
<path style="fill:#008CFF;" d="M181.262,327.715l1.861-49.289c0.23-6.095-4.649-11.162-10.749-11.162h-38.638
	c-6.099,0-10.979,5.066-10.749,11.162l1.86,49.289H181.262z"/>
<path style="fill:#0385DD;" d="M153.743,267.264h-20.006c-6.099,0-10.979,5.066-10.749,11.162l1.86,49.289h20.006l-1.86-49.289
	C142.764,272.33,147.643,267.264,153.743,267.264z"/>
<path style="fill:#FFC850;" d="M194.103,167.154l-39.371-57.777c-0.899-1.32-2.845-1.32-3.745,0l-39.371,57.777
	c-1.731,2.54-1.423,5.95,0.735,8.139l18.757,19.021c1.136,1.152,1.773,2.705,1.773,4.323v10.647h39.955v-10.648
	c0-1.618,0.637-3.171,1.773-4.323l18.758-19.021C195.526,173.104,195.834,169.694,194.103,167.154z"/>
<path style="fill:#F9B428;" d="M151.11,194.315l-18.757-19.021c-2.158-2.188-2.466-5.598-0.735-8.139l31.243-45.849l-8.128-11.928
	c-0.899-1.32-2.845-1.32-3.745,0l-39.371,57.777c-1.731,2.54-1.423,5.95,0.735,8.139l18.757,19.021
	c1.136,1.152,1.773,2.705,1.773,4.323v10.647h20.001v-10.647C152.883,197.02,152.246,195.467,151.11,194.315z"/>
<path style="fill:#D8DCE5;" d="M179.246,209.097h-52.773c-4.484,0-8.152,3.669-8.152,8.153v7.218c0,4.484,3.668,8.152,8.152,8.152
	h52.773c4.484,0,8.153-3.669,8.153-8.152v-7.218C187.399,212.766,183.731,209.097,179.246,209.097z"/>
<path style="fill:#C3C8D1;" d="M179.246,216.62h-52.773c-2.869,0-5.398-1.505-6.852-3.761c-0.819,1.27-1.3,2.776-1.3,4.391v7.218
	c0,4.484,3.668,8.152,8.152,8.152h52.773c4.484,0,8.153-3.669,8.153-8.152v-7.218c0-1.615-0.482-3.121-1.3-4.391
	C184.645,215.115,182.115,216.62,179.246,216.62z"/>
<rect x="252.925" y="203.702" style="fill:#AD7B64;" width="36.663" height="124.128"/>
<rect x="207.222" y="403.904" style="fill:#D8DCE5;" width="93.016" height="64.634"/>
<rect x="207.222" y="403.904" style="fill:#C3C8D1;" width="20.001" height="64.634"/>
<path style="fill:#E4EAF8;" d="M332.252,466.36h-157.04c-7.884,0-14.277,6.391-14.277,14.276v9.816
	c0,7.884,6.392,14.276,14.277,14.276h157.04c7.884,0,14.277-6.391,14.277-14.276v-9.816
	C346.528,472.752,340.137,466.36,332.252,466.36z"/>
<path style="fill:#D8DCE5;" d="M332.253,484.727H175.211c-6.088,0-11.272-3.817-13.325-9.184c-0.606,1.583-0.952,3.296-0.952,5.093
	v9.816c0,7.884,6.392,14.276,14.277,14.276h157.04c7.884,0,14.277-6.391,14.277-14.276v-9.816c0-1.797-0.346-3.509-0.952-5.093
	C343.524,480.909,338.34,484.727,332.253,484.727z"/>
<path style="fill:#E4EAF8;" d="M396.553,327.294H115.371H20.296v64.088c0,9.333,7.636,16.968,16.968,16.968
	c10.648,0,424.997,0,437.398,0c9.333,0,16.968-7.636,16.968-16.968v-64.088H396.553z"/>
<path style="fill:#D8DCE5;" d="M40.222,391.382v-64.088H20.296v64.088c0,9.332,7.636,16.968,16.968,16.968h19.927
	C47.858,408.35,40.222,400.713,40.222,391.382z"/>
<path d="M253.769,375.094h4.461c4.143,0,7.5-3.358,7.5-7.5c0-4.142-3.357-7.5-7.5-7.5h-4.461c-4.143,0-7.5,3.358-7.5,7.5
	C246.268,371.736,249.626,375.094,253.769,375.094z"/>
<path d="M491.666,194.072c4.143,0,7.5-3.358,7.5-7.5V24.468C499.167,10.977,488.19,0,474.698,0H37.301
	C23.809,0,12.832,10.977,12.832,24.468c0,14.034,0,349.112,0,366.684c0,13.492,10.977,24.469,24.468,24.469h162.458v43.01h-24.51
	c-12.009,0-21.777,9.77-21.777,21.776v9.816c0,12.008,9.77,21.776,21.777,21.776h60.209c4.143,0,7.5-3.358,7.5-7.5
	s-3.357-7.5-7.5-7.5h-60.209c-3.736,0-6.776-3.04-6.776-6.775v-9.816c0-3.736,3.04-6.775,6.776-6.775c5.319,0,149.241,0,157.04,0
	c3.736,0,6.776,3.04,6.776,6.775v9.816c0,3.736-3.04,6.775-6.776,6.775h-61.83c-4.143,0-7.5,3.358-7.5,7.5s3.357,7.5,7.5,7.5h61.83
	c12.009,0,21.777-9.77,21.777-21.776v-9.816c0-12.008-9.77-21.776-21.777-21.776h-24.51v-43.01h166.92
	c13.492,0,24.468-10.977,24.468-24.469c0-6.97,0-161.417,0-169.579c0-4.142-3.357-7.5-7.5-7.5c-4.143,0-7.5,3.358-7.5,7.5v97.991
	h-19.874V54.582c0-9.679-7.874-17.553-17.553-17.553H65.26c-9.679,0-17.553,7.874-17.553,17.553v264.982H27.833V24.468
	c0-5.22,4.247-9.468,9.468-9.468h437.397c5.22,0,9.468,4.247,9.468,9.468v162.103C484.166,190.714,487.523,194.072,491.666,194.072z
	 M292.778,458.631h-78.019v-43.01h78.019V458.631z M145.592,162.245c-3.736,0.428-6.638,3.597-6.638,7.447
	c0,4.142,3.357,7.5,7.5,7.5h12.884c4.143,0,7.5-3.358,7.5-7.5c0-3.714-2.701-6.789-6.245-7.387v-31.581l27.114,39.79l-18.172,18.428
	c-4.394,4.453-3.937,9.233-3.937,12.759h-25.013c0-3.392,0.504-8.256-3.936-12.758l-18.172-18.429l27.114-39.79v31.521H145.592z
	 M140.586,239.893h25.013v19.642h-25.013V239.893z M126.655,224.892c-0.342,0-0.652-0.311-0.652-0.652v-6.884
	c0-0.341,0.311-0.652,0.652-0.652c11.111,0,41.584,0,52.873,0c0.342,0,0.653,0.311,0.653,0.652v6.884
	c0,0.341-0.312,0.652-0.653,0.652C168.239,224.892,137.766,224.892,126.655,224.892z M130.73,277.836
	c-0.045-1.176,0.536-1.961,0.887-2.325c0.351-0.364,1.114-0.975,2.291-0.975h38.369c1.177,0,1.94,0.61,2.291,0.975
	c0.351,0.364,0.932,1.149,0.887,2.326l-1.575,41.729h-41.575L130.73,277.836z M234.666,182.121h36.585l6.439,13.656
	c-5.242,0-44.222,0-49.464,0L234.666,182.121z M388.543,122.776h-12.13c-4.143,0-7.5,3.358-7.5,7.5c0,4.142,3.357,7.5,7.5,7.5h12.13
	v34.196h-12.13c-4.143,0-7.5,3.358-7.5,7.5c0,4.142,3.357,7.5,7.5,7.5h12.13v34.196h-12.13c-4.143,0-7.5,3.358-7.5,7.5
	c0,4.142,3.357,7.5,7.5,7.5h12.13v34.196h-12.13c-4.143,0-7.5,3.358-7.5,7.5c0,4.142,3.357,7.5,7.5,7.5h12.13v34.196h-58.122V88.58
	h58.122V122.776z M260.458,319.564V210.778h21.56v108.787H260.458z M252.958,143.325l11.22,23.794h-22.439L252.958,143.325z
	 M223.898,210.778h21.56v108.787h-21.56V210.778z M62.708,54.582c0-1.407,1.145-2.552,2.552-2.552h381.478
	c1.407,0,2.552,1.145,2.552,2.552v264.982h-45.747V85.374c0-6.503-5.291-11.795-11.795-11.795h-64.534
	c-6.503,0-11.795,5.291-11.795,11.795v234.19h-18.4V203.277c0-1.104-0.251-2.206-0.716-3.199
	c-54.929-116.496,18.949,40.183-32.964-69.911c-4.141-8.78-16.626-8.77-20.763,0c-3.528,7.482-30.021,63.669-32.964,69.911
	c-0.477,1.01-0.716,2.167-0.716,3.199v116.287h-20.004l1.554-41.163c0.188-4.983-1.613-9.706-5.072-13.297
	c-1.41-1.465-3.026-2.645-4.774-3.548v-21.718c8.131-0.554,14.584-7.329,14.584-15.599v-6.884c0-8.271-6.452-15.045-14.584-15.599
	v-2.668l18.4-18.66c4.665-4.73,5.336-12.149,1.595-17.64l0,0l-39.428-57.86c-3.861-5.671-12.285-5.671-16.147-0.001l-39.428,57.861
	c-3.741,5.491-3.07,12.91,1.595,17.64l18.399,18.659v2.669c-8.131,0.554-14.583,7.329-14.583,15.599v6.884
	c0,8.271,6.451,15.045,14.583,15.599v21.718c-1.748,0.903-3.364,2.083-4.773,3.547c-3.459,3.592-5.26,8.314-5.072,13.297
	l1.554,41.163H62.708V54.582z M484.166,334.565v56.586c0,5.22-4.247,9.468-9.468,9.468c-5.174,0-426.944,0-437.397,0
	c-5.22,0-9.468-4.247-9.468-9.468v-56.586H484.166z"/>
<g>
</g>
<g>
</g>
<g>
</g>
<g>
</g>
<g>
</g>
<g>
</g>
<g>
</g>
<g>
</g>
<g>
</g>
<g>
</g>
<g>
</g>
<g>
</g>
<g>
</g>
<g>
</g>
<g>
</g>
</svg>
